999
DXF data, created by potrace 1.10, written by Peter Selinger 2001-2011
  0
SECTION
  2
HEADER
  9
$ACADVER
  1
AC1006
  9
$EXTMIN
 10
0.000000
 20
0.000000
 30
0.000000
  9
$EXTMAX
 10
640.000000
 20
640.000000
 30
0.000000
  0
ENDSEC
  0
SECTION
  2
ENTITIES
  0
POLYLINE
  8
0
 66
1
 70
1
  0
VERTEX
  8
0
 10
488.015313
 20
360.174634
 42
-0.179150
  0
VERTEX
  8
0
 10
487.811245
 20
359.642338
 42
-0.114977
  0
VERTEX
  8
0
 10
487.267255
 20
359.252978
 42
-0.077084
  0
VERTEX
  8
0
 10
486.396302
 20
359.041313
 42
-0.037614
  0
VERTEX
  8
0
 10
485.250000
 20
359.030596
 42
0.013823
  0
VERTEX
  8
0
 10
480.372442
 20
359.216997
 42
0.036460
  0
VERTEX
  8
0
 10
476.885295
 20
358.999344
 42
0.054623
  0
VERTEX
  8
0
 10
474.657845
 20
358.443945
 42
0.314081
  0
VERTEX
  8
0
 10
474.000000
 20
357.500000
 42
-0.064853
  0
VERTEX
  8
0
 10
473.925306
 20
356.926543
 42
-0.082425
  0
VERTEX
  8
0
 10
473.706250
 20
356.440625
 42
-0.098894
  0
VERTEX
  8
0
 10
473.381354
 20
356.115568
 42
-0.148195
  0
VERTEX
  8
0
 10
473.000000
 20
356.000000
 42
0.148195
  0
VERTEX
  8
0
 10
472.618646
 20
355.884432
 42
0.098894
  0
VERTEX
  8
0
 10
472.293750
 20
355.559375
 42
0.082425
  0
VERTEX
  8
0
 10
472.074694
 20
355.073457
 42
0.064853
  0
VERTEX
  8
0
 10
472.000000
 20
354.500000
 42
0.248335
  0
VERTEX
  8
0
 10
472.481159
 20
353.590974
 42
0.103945
  0
VERTEX
  8
0
 10
473.802086
 20
353.047990
 42
0.046608
  0
VERTEX
  8
0
 10
476.246033
 20
352.828148
 42
0.010031
  0
VERTEX
  8
0
 10
480.500000
 20
352.928121
 42
-0.028839
  0
VERTEX
  8
0
 10
481.887441
 20
352.908551
 42
-0.015427
  0
VERTEX
  8
0
 10
483.593297
 20
352.732880
 42
-0.015312
  0
VERTEX
  8
0
 10
485.328781
 20
352.445513
 42
-0.023064
  0
VERTEX
  8
0
 10
486.817606
 20
352.079855
 42
0.078340
  0
VERTEX
  8
0
 10
490.709069
 20
351.568749
 42
0.003892
  0
VERTEX
  8
0
 10
503.638226
 20
352.002721
 42
0.005956
  0
VERTEX
  8
0
 10
516.229267
 20
352.673824
 42
0.035426
  0
VERTEX
  8
0
 10
522.750000
 20
353.566043
 42
0.119470
  0
VERTEX
  8
0
 10
524.188986
 20
354.251624
 42
0.173727
  0
VERTEX
  8
0
 10
524.910329
 20
355.443232
 42
0.155498
  0
VERTEX
  8
0
 10
524.749009
 20
356.928344
 42
0.092430
  0
VERTEX
  8
0
 10
523.733440
 20
358.409417
 42
0.161889
  0
VERTEX
  8
0
 10
521.040243
 20
359.758567
 42
0.021033
  0
VERTEX
  8
0
 10
514.557325
 20
360.417888
 42
0.023974
  0
VERTEX
  8
0
 10
506.918272
 20
360.504625
 42
0.023381
  0
VERTEX
  8
0
 10
499.241255
 20
359.863345
 42
-0.005000
  0
VERTEX
  8
0
 10
494.018657
 20
359.233120
 42
-0.032474
  0
VERTEX
  8
0
 10
491.373823
 20
359.113582
 42
-0.073035
  0
VERTEX
  8
0
 10
489.836806
 20
359.370418
 42
-0.175578
  0
VERTEX
  8
0
 10
488.937453
 20
360.066963
 42
0.013425
  0
VERTEX
  8
0
 10
488.462132
 20
360.775278
 42
0.212274
  0
VERTEX
  8
0
 10
488.218171
 20
360.919721
 42
0.410772
  0
VERTEX
  8
0
 10
488.058677
 20
360.795096
 42
0.029120
  0
SEQEND
  0
POLYLINE
  8
0
 66
1
 70
1
  0
VERTEX
  8
0
 10
182.946118
 20
330.945537
 42
-0.063899
  0
VERTEX
  8
0
 10
182.184389
 20
330.590211
 42
-0.023943
  0
VERTEX
  8
0
 10
181.043547
 20
330.285541
 42
-0.023256
  0
VERTEX
  8
0
 10
179.754660
 20
330.068822
 42
-0.026100
  0
VERTEX
  8
0
 10
178.500000
 20
329.983509
 42
0.040647
  0
VERTEX
  8
0
 10
177.209168
 20
329.857964
 42
0.029850
  0
VERTEX
  8
0
 10
175.811043
 20
329.518951
 42
0.030426
  0
VERTEX
  8
0
 10
174.518241
 20
329.034695
 42
0.057144
  0
VERTEX
  8
0
 10
173.558870
 20
328.468197
 42
-0.084249
  0
VERTEX
  8
0
 10
172.386004
 20
327.858396
 42
-0.031043
  0
VERTEX
  8
0
 10
170.572618
 20
327.396729
 42
-0.027341
  0
VERTEX
  8
0
 10
168.335653
 20
327.098454
 42
-0.019475
  0
VERTEX
  8
0
 10
165.808870
 20
327.000000
 42
0.016099
  0
VERTEX
  8
0
 10
163.576707
 20
326.928110
 42
0.026529
  0
VERTEX
  8
0
 10
161.702218
 20
326.706962
 42
0.024906
  0
VERTEX
  8
0
 10
160.298759
 20
326.392708
 42
0.337146
  0
VERTEX
  8
0
 10
160.000000
 20
326.000000
 42
-0.286674
  0
VERTEX
  8
0
 10
159.758166
 20
325.612872
 42
-0.047725
  0
VERTEX
  8
0
 10
158.898438
 20
325.290570
 42
-0.039935
  0
VERTEX
  8
0
 10
157.687022
 20
325.065788
 42
-0.025193
  0
VERTEX
  8
0
 10
156.250000
 20
324.989176
 42
0.026842
  0
VERTEX
  8
0
 10
154.492368
 20
324.889663
 42
0.013317
  0
VERTEX
  8
0
 10
152.279687
 20
324.584932
 42
0.013177
  0
VERTEX
  8
0
 10
149.996699
 20
324.146239
 42
0.018824
  0
VERTEX
  8
0
 10
148.000000
 20
323.628226
 42
-0.032118
  0
VERTEX
  8
0
 10
142.657334
 20
322.392660
 42
-0.018603
  0
VERTEX
  8
0
 10
136.115593
 20
321.564993
 42
-0.009569
  0
VERTEX
  8
0
 10
129.852415
 20
321.128926
 42
-0.429046
  0
VERTEX
  8
0
 10
129.000000
 20
321.939448
 42
0.285183
  0
VERTEX
  8
0
 10
128.745672
 20
322.349086
 42
0.048820
  0
VERTEX
  8
0
 10
127.849479
 20
322.688463
 42
0.040547
  0
VERTEX
  8
0
 10
126.584204
 20
322.923135
 42
0.025590
  0
VERTEX
  8
0
 10
125.083333
 20
323.000000
 42
-0.021893
  0
VERTEX
  8
0
 10
123.558808
 20
323.066785
 42
-0.031212
  0
VERTEX
  8
0
 10
122.219271
 20
323.269186
 42
-0.031915
  0
VERTEX
  8
0
 10
121.192779
 20
323.560112
 42
-0.224129
  0
VERTEX
  8
0
 10
120.833333
 20
323.916377
 42
0.302340
  0
VERTEX
  8
0
 10
120.461559
 20
324.190140
 42
0.039762
  0
VERTEX
  8
0
 10
119.431245
 20
324.157195
 42
0.035090
  0
VERTEX
  8
0
 10
118.068648
 20
323.906994
 42
0.021308
  0
VERTEX
  8
0
 10
116.500000
 20
323.431434
 42
-0.026131
  0
VERTEX
  8
0
 10
114.660519
 20
322.893073
 42
-0.015612
  0
VERTEX
  8
0
 10
112.426563
 20
322.437328
 42
-0.015610
  0
VERTEX
  8
0
 10
110.167399
 20
322.121709
 42
-0.026018
  0
VERTEX
  8
0
 10
108.250000
 20
322.015056
 42
0.019716
  0
VERTEX
  8
0
 10
106.620994
 20
321.945017
 42
0.031846
  0
VERTEX
  8
0
 10
105.248437
 20
321.743096
 42
0.033677
  0
VERTEX
  8
0
 10
104.244297
 20
321.457539
 42
0.316583
  0
VERTEX
  8
0
 10
104.000000
 20
321.110376
 42
-0.260513
  0
VERTEX
  8
0
 10
103.766809
 20
320.693190
 42
-0.023355
  0
VERTEX
  8
0
 10
102.678125
 20
320.091777
 42
-0.025694
  0
VERTEX
  8
0
 10
101.224276
 20
319.465719
 42
-0.017036
  0
VERTEX
  8
0
 10
99.500000
 20
318.892061
 42
0.014967
  0
VERTEX
  8
0
 10
97.775544
 20
318.326258
 42
0.022892
  0
VERTEX
  8
0
 10
96.321875
 20
317.724053
 42
0.019203
  0
VERTEX
  8
0
 10
95.216323
 20
317.152812
 42
0.270168
  0
VERTEX
  8
0
 10
95.000000
 20
316.781685
 42
-0.184640
  0
VERTEX
  8
0
 10
94.885913
 20
316.483274
 42
-0.090258
  0
VERTEX
  8
0
 10
94.559375
 20
316.229620
 42
-0.070118
  0
VERTEX
  8
0
 10
94.073987
 20
316.057704
 42
-0.050139
  0
VERTEX
  8
0
 10
93.500000
 20
316.000000
 42
0.125389
  0
VERTEX
  8
0
 10
92.927938
 20
315.854248
 42
0.100779
  0
VERTEX
  8
0
 10
92.440625
 20
315.443928
 42
0.090193
  0
VERTEX
  8
0
 10
92.113102
 20
314.830154
 42
0.077727
  0
VERTEX
  8
0
 10
92.000000
 20
314.106989
 42
-0.138922
  0
VERTEX
  8
0
 10
91.610586
 20
312.732478
 42
-0.135600
  0
VERTEX
  8
0
 10
90.555363
 20
311.751234
 42
-0.087594
  0
VERTEX
  8
0
 10
88.726523
 20
311.175896
 42
-0.032523
  0
VERTEX
  8
0
 10
86.025201
 20
311.000000
 42
0.048332
  0
VERTEX
  8
0
 10
84.893641
 20
310.890362
 42
0.055996
  0
VERTEX
  8
0
 10
83.861684
 20
310.565418
 42
0.064178
  0
VERTEX
  8
0
 10
83.064452
 20
310.081981
 42
0.133561
  0
VERTEX
  8
0
 10
82.638374
 20
309.500000
 42
-0.104363
  0
VERTEX
  8
0
 10
82.267132
 20
308.926359
 42
-0.066680
  0
VERTEX
  8
0
 10
81.635134
 20
308.440625
 42
-0.062710
  0
VERTEX
  8
0
 10
80.850994
 20
308.111994
 42
-0.068006
  0
VERTEX
  8
0
 10
80.031385
 20
308.000000
 42
0.047258
  0
VERTEX
  8
0
 10
79.253918
 20
307.926353
 42
0.067241
  0
VERTEX
  8
0
 10
78.596719
 20
307.706250
 42
0.087393
  0
VERTEX
  8
0
 10
78.153584
 20
307.381936
 42
0.193529
  0
VERTEX
  8
0
 10
78.000000
 20
307.000000
 42
0.099038
  0
VERTEX
  8
0
 10
78.076342
 20
306.618362
 42
0.097945
  0
VERTEX
  8
0
 10
78.293750
 20
306.293750
 42
0.097945
  0
VERTEX
  8
0
 10
78.618362
 20
306.076342
 42
0.099038
  0
VERTEX
  8
0
 10
79.000000
 20
306.000000
 42
-0.226478
  0
VERTEX
  8
0
 10
79.382936
 20
305.817169
 42
-0.074992
  0
VERTEX
  8
0
 10
79.706250
 20
305.265625
 42
-0.057076
  0
VERTEX
  8
0
 10
79.926884
 20
304.457356
 42
-0.038131
  0
VERTEX
  8
0
 10
80.000000
 20
303.500000
 42
0.044917
  0
VERTEX
  8
0
 10
80.106468
 20
302.317234
 42
0.124434
  0
VERTEX
  8
0
 10
80.450000
 20
301.562500
 42
0.149477
  0
VERTEX
  8
0
 10
81.064742
 20
301.142566
 42
0.075780
  0
VERTEX
  8
0
 10
82.000000
 20
301.000000
 42
0.075780
  0
VERTEX
  8
0
 10
82.935258
 20
301.142566
 42
0.149477
  0
VERTEX
  8
0
 10
83.550000
 20
301.562500
 42
0.124434
  0
VERTEX
  8
0
 10
83.893532
 20
302.317234
 42
0.044917
  0
VERTEX
  8
0
 10
84.000000
 20
303.500000
 42
-0.044891
  0
VERTEX
  8
0
 10
84.107001
 20
304.689377
 42
-0.126393
  0
VERTEX
  8
0
 10
84.453138
 20
305.442328
 42
-0.150197
  0
VERTEX
  8
0
 10
85.075682
 20
305.859410
 42
-0.073159
  0
VERTEX
  8
0
 10
86.031385
 20
306.000000
 42
0.068006
  0
VERTEX
  8
0
 10
86.850994
 20
306.111994
 42
0.062710
  0
VERTEX
  8
0
 10
87.635134
 20
306.440625
 42
0.066680
  0
VERTEX
  8
0
 10
88.267132
 20
306.926359
 42
0.104363
  0
VERTEX
  8
0
 10
88.638374
 20
307.500000
 42
-0.147116
  0
VERTEX
  8
0
 10
89.137371
 20
308.144888
 42
-0.074201
  0
VERTEX
  8
0
 10
90.061664
 20
308.616710
 42
-0.054096
  0
VERTEX
  8
0
 10
91.387640
 20
308.907339
 42
-0.026927
  0
VERTEX
  8
0
 10
93.106989
 20
309.000000
 42
0.022325
  0
VERTEX
  8
0
 10
94.855875
 20
309.078128
 42
0.063200
  0
VERTEX
  8
0
 10
96.047177
 20
309.338927
 42
0.109414
  0
VERTEX
  8
0
 10
96.745189
 20
309.776266
 42
0.200920
  0
VERTEX
  8
0
 10
97.000000
 20
310.384777
 42
-0.340826
  0
VERTEX
  8
0
 10
97.863470
 20
311.504361
 42
-0.022831
  0
VERTEX
  8
0
 10
102.081925
 20
312.408900
 42
-0.029086
  0
VERTEX
  8
0
 10
106.505760
 20
312.885924
 42
-0.104293
  0
VERTEX
  8
0
 10
109.296844
 20
312.439585
 42
0.052622
  0
VERTEX
  8
0
 10
109.986088
 20
312.255301
 42
0.114938
  0
VERTEX
  8
0
 10
110.528278
 20
312.294820
 42
0.169044
  0
VERTEX
  8
0
 10
110.869481
 20
312.547039
 42
0.150961
  0
VERTEX
  8
0
 10
111.000000
 20
312.969480
 42
-0.249787
  0
VERTEX
  8
0
 10
111.254897
 20
313.447875
 42
-0.084637
  0
VERTEX
  8
0
 10
111.997773
 20
313.782132
 42
-0.053746
  0
VERTEX
  8
0
 10
113.175741
 20
313.956011
 42
-0.023792
  0
VERTEX
  8
0
 10
114.750000
 20
313.942769
 42
0.016928
  0
VERTEX
  8
0
 10
116.295702
 20
313.908552
 42
0.016965
  0
VERTEX
  8
0
 10
117.839062
 20
313.979051
 42
0.017052
  0
VERTEX
  8
0
 10
119.178533
 20
314.131972
 42
0.062376
  0
VERTEX
  8
0
 10
120.000000
 20
314.361413
 42
-0.077160
  0
VERTEX
  8
0
 10
120.880638
 20
314.579665
 42
-0.014813
  0
VERTEX
  8
0
 10
122.528125
 20
314.677475
 42
-0.015460
  0
VERTEX
  8
0
 10
124.475767
 20
314.675055
 42
-0.013700
  0
VERTEX
  8
0
 10
126.500000
 20
314.554355
 42
0.002914
  0
VERTEX
  8
0
 10
139.690653
 20
313.481895
 42
0.015919
  0
VERTEX
  8
0
 10
146.840712
 20
313.170946
 42
0.022592
  0
VERTEX
  8
0
 10
151.128423
 20
313.314852
 42
0.391339
  0
VERTEX
  8
0
 10
152.000000
 20
314.257895
 42
-0.220617
  0
VERTEX
  8
0
 10
152.513199
 20
315.364387
 42
-0.096340
  0
VERTEX
  8
0
 10
153.958546
 20
316.173150
 42
-0.042004
  0
VERTEX
  8
0
 10
156.735312
 20
316.835361
 42
-0.007582
  0
VERTEX
  8
0
 10
162.000000
 20
317.550371
 42
0.013117
  0
VERTEX
  8
0
 10
164.422918
 20
317.906786
 42
0.008902
  0
VERTEX
  8
0
 10
167.161622
 20
318.433745
 42
0.008974
  0
VERTEX
  8
0
 10
169.789811
 20
319.037592
 42
0.017719
  0
VERTEX
  8
0
 10
171.848075
 20
319.627715
 42
-0.030465
  0
VERTEX
  8
0
 10
173.995034
 20
320.184488
 42
-0.026546
  0
VERTEX
  8
0
 10
176.294912
 20
320.508003
 42
-0.026301
  0
VERTEX
  8
0
 10
178.639719
 20
320.587945
 42
-0.028352
  0
VERTEX
  8
0
 10
180.921270
 20
320.416056
 42
0.018337
  0
VERTEX
  8
0
 10
183.256836
 20
320.193000
 42
0.049009
  0
VERTEX
  8
0
 10
184.926024
 20
320.258791
 42
0.070055
  0
VERTEX
  8
0
 10
186.164928
 20
320.611311
 42
0.092337
  0
VERTEX
  8
0
 10
187.131478
 20
321.274335
 42
-0.078736
  0
VERTEX
  8
0
 10
187.984714
 20
321.894159
 42
-0.025609
  0
VERTEX
  8
0
 10
189.411639
 20
322.531209
 42
-0.024806
  0
VERTEX
  8
0
 10
191.094618
 20
323.087229
 42
-0.025535
  0
VERTEX
  8
0
 10
192.808283
 20
323.467610
 42
0.058172
  0
VERTEX
  8
0
 10
195.452646
 20
324.238270
 42
0.149627
  0
VERTEX
  8
0
 10
196.963206
 20
325.502468
 42
0.418296
  0
VERTEX
  8
0
 10
196.738736
 20
326.528146
 42
0.141683
  0
VERTEX
  8
0
 10
195.106989
 20
327.000000
 42
-0.072710
  0
VERTEX
  8
0
 10
194.340293
 20
327.112085
 42
-0.064008
  0
VERTEX
  8
0
 10
193.600966
 20
327.440625
 42
-0.066864
  0
VERTEX
  8
0
 10
192.999607
 20
327.926463
 42
-0.098143
  0
VERTEX
  8
0
 10
192.638374
 20
328.500000
 42
0.107252
  0
VERTEX
  8
0
 10
192.262425
 20
329.073701
 42
0.066496
  0
VERTEX
  8
0
 10
191.615822
 20
329.559375
 42
0.062061
  0
VERTEX
  8
0
 10
190.810396
 20
329.888058
 42
0.065969
  0
VERTEX
  8
0
 10
189.965643
 20
330.000000
 42
-0.036231
  0
VERTEX
  8
0
 10
189.036017
 20
330.067452
 42
-0.023276
  0
VERTEX
  8
0
 10
187.973969
 20
330.273253
 42
-0.023381
  0
VERTEX
  8
0
 10
186.947752
 20
330.573580
 42
-0.040006
  0
VERTEX
  8
0
 10
186.130377
 20
330.930225
 42
0.059354
  0
VERTEX
  8
0
 10
185.320013
 20
331.247173
 42
0.062443
  0
VERTEX
  8
0
 10
184.471810
 20
331.357662
 42
0.065320
  0
VERTEX
  8
0
 10
183.657496
 20
331.254806
 42
0.077151
  0
SEQEND
  0
POLYLINE
  8
0
 66
1
 70
1
  0
VERTEX
  8
0
 10
308.078947
 20
324.240562
 42
-0.235606
  0
VERTEX
  8
0
 10
307.769427
 20
323.706649
 42
-0.073764
  0
VERTEX
  8
0
 10
306.906338
 20
323.305178
 42
-0.049022
  0
VERTEX
  8
0
 10
305.560498
 20
323.046122
 42
-0.021667
  0
VERTEX
  8
0
 10
303.750000
 20
322.957577
 42
0.005095
  0
VERTEX
  8
0
 10
297.626297
 20
322.861241
 42
0.014943
  0
VERTEX
  8
0
 10
293.414271
 20
322.625949
 42
0.012404
  0
VERTEX
  8
0
 10
290.455015
 20
322.297632
 42
0.375118
  0
VERTEX
  8
0
 10
290.000000
 20
321.776477
 42
-0.265572
  0
VERTEX
  8
0
 10
289.829220
 20
321.477623
 42
-0.057897
  0
VERTEX
  8
0
 10
289.265625
 20
321.228090
 42
-0.045902
  0
VERTEX
  8
0
 10
288.457821
 20
321.056416
 42
-0.029425
  0
VERTEX
  8
0
 10
287.500000
 20
321.000000
 42
-0.031465
  0
VERTEX
  8
0
 10
286.542282
 20
321.060328
 42
-0.048646
  0
VERTEX
  8
0
 10
285.734375
 20
321.243567
 42
-0.062367
  0
VERTEX
  8
0
 10
285.174370
 20
321.510513
 42
-0.255715
  0
VERTEX
  8
0
 10
285.000000
 20
321.829163
 42
0.393529
  0
VERTEX
  8
0
 10
284.703019
 20
322.148058
 42
0.007062
  0
VERTEX
  8
0
 10
282.168962
 20
322.292685
 42
0.013441
  0
VERTEX
  8
0
 10
279.057836
 20
322.342490
 42
0.008055
  0
VERTEX
  8
0
 10
275.362423
 20
322.242751
 42
-0.006631
  0
VERTEX
  8
0
 10
270.571906
 20
322.099802
 42
-0.026049
  0
VERTEX
  8
0
 10
267.619141
 20
322.204719
 42
-0.041620
  0
VERTEX
  8
0
 10
265.751121
 20
322.526903
 42
-0.190210
  0
VERTEX
  8
0
 10
264.877736
 20
323.163588
 42
0.017613
  0
VERTEX
  8
0
 10
264.428769
 20
323.819597
 42
0.323696
  0
VERTEX
  8
0
 10
264.201692
 20
323.892159
 42
0.303592
  0
VERTEX
  8
0
 10
264.049851
 20
323.698317
 42
0.016385
  0
VERTEX
  8
0
 10
264.015313
 20
322.880842
 42
-0.158158
  0
VERTEX
  8
0
 10
263.764708
 20
322.132583
 42
-0.099687
  0
VERTEX
  8
0
 10
263.075267
 20
321.509123
 42
-0.065835
  0
VERTEX
  8
0
 10
261.915449
 20
321.011928
 42
-0.027431
  0
VERTEX
  8
0
 10
260.250000
 20
320.641848
 42
-0.013200
  0
VERTEX
  8
0
 10
256.286347
 20
320.093747
 42
-0.053716
  0
VERTEX
  8
0
 10
253.855942
 20
320.084796
 42
-0.118642
  0
VERTEX
  8
0
 10
252.510003
 20
320.560639
 42
-0.253955
  0
VERTEX
  8
0
 10
252.000000
 20
321.500000
 42
0.113754
  0
VERTEX
  8
0
 10
251.866203
 20
322.080490
 42
0.094082
  0
VERTEX
  8
0
 10
251.485938
 20
322.590502
 42
0.087841
  0
VERTEX
  8
0
 10
250.918395
 20
322.952098
 42
0.083081
  0
VERTEX
  8
0
 10
250.250000
 20
323.105963
 42
0.023758
  0
VERTEX
  8
0
 10
247.431092
 20
323.142526
 42
0.029602
  0
VERTEX
  8
0
 10
244.823510
 20
322.897419
 42
0.029101
  0
VERTEX
  8
0
 10
242.735817
 20
322.450055
 42
0.188634
  0
VERTEX
  8
0
 10
241.890235
 20
321.817630
 42
-0.183571
  0
VERTEX
  8
0
 10
241.349337
 20
321.404767
 42
-0.016186
  0
VERTEX
  8
0
 10
239.655895
 20
320.960643
 42
-0.019498
  0
VERTEX
  8
0
 10
237.536710
 20
320.563786
 42
-0.013927
  0
VERTEX
  8
0
 10
235.140235
 20
320.279000
 42
0.013054
  0
VERTEX
  8
0
 10
232.786445
 20
320.003449
 42
0.021077
  0
VERTEX
  8
0
 10
230.803694
 20
319.632824
 42
0.016388
  0
VERTEX
  8
0
 10
229.270843
 20
319.225524
 42
0.330921
  0
VERTEX
  8
0
 10
229.000000
 20
318.861111
 42
0.115380
  0
VERTEX
  8
0
 10
229.076819
 20
318.532644
 42
0.100436
  0
VERTEX
  8
0
 10
229.293750
 20
318.252951
 42
0.093409
  0
VERTEX
  8
0
 10
229.618122
 20
318.065228
 42
0.084791
  0
VERTEX
  8
0
 10
230.000000
 20
318.000000
 42
-0.342462
  0
VERTEX
  8
0
 10
230.779093
 20
317.395483
 42
-0.072154
  0
VERTEX
  8
0
 10
230.975720
 20
315.564220
 42
-0.065673
  0
VERTEX
  8
0
 10
230.646960
 20
313.628732
 42
-0.241972
  0
VERTEX
  8
0
 10
229.805846
 20
312.768615
 42
0.794200
  0
VERTEX
  8
0
 10
229.817881
 20
312.640053
 42
0.027727
  0
VERTEX
  8
0
 10
230.678278
 20
312.571398
 42
0.012853
  0
VERTEX
  8
0
 10
232.288854
 20
312.573844
 42
0.005410
  0
VERTEX
  8
0
 10
234.452725
 20
312.656204
 42
0.014061
  0
VERTEX
  8
0
 10
236.938879
 20
312.847979
 42
0.011559
  0
VERTEX
  8
0
 10
239.579271
 20
313.188402
 42
0.011726
  0
VERTEX
  8
0
 10
241.991256
 20
313.614337
 42
0.030143
  0
VERTEX
  8
0
 10
243.702493
 20
314.066829
 42
-0.077120
  0
VERTEX
  8
0
 10
247.267109
 20
314.659798
 42
-0.015988
  0
VERTEX
  8
0
 10
253.638615
 20
314.525534
 42
-0.008608
  0
VERTEX
  8
0
 10
260.159154
 20
314.066650
 42
-0.389259
  0
VERTEX
  8
0
 10
260.999008
 20
313.148509
 42
0.417253
  0
VERTEX
  8
0
 10
261.542518
 20
312.608955
 42
0.002102
  0
VERTEX
  8
0
 10
269.972440
 20
312.718886
 42
0.008484
  0
VERTEX
  8
0
 10
278.504083
 20
313.010878
 42
0.011761
  0
VERTEX
  8
0
 10
286.135312
 20
313.581992
 42
-0.007608
  0
VERTEX
  8
0
 10
289.709355
 20
313.879335
 42
-0.042361
  0
VERTEX
  8
0
 10
291.632022
 20
313.846871
 42
-0.104267
  0
VERTEX
  8
0
 10
292.647782
 20
313.522237
 42
-0.263512
  0
VERTEX
  8
0
 10
293.031803
 20
312.879210
 42
0.048653
  0
VERTEX
  8
0
 10
293.105127
 20
312.272572
 42
0.401421
  0
VERTEX
  8
0
 10
293.315359
 20
312.131864
 42
0.172970
  0
VERTEX
  8
0
 10
293.653023
 20
312.323494
 42
0.015214
  0
VERTEX
  8
0
 10
294.281803
 20
313.098472
 42
-0.198371
  0
VERTEX
  8
0
 10
296.481540
 20
314.381252
 42
-0.023646
  0
VERTEX
  8
0
 10
302.215862
 20
314.892960
 42
-0.021386
  0
VERTEX
  8
0
 10
307.877174
 20
314.887033
 42
-0.399225
  0
VERTEX
  8
0
 10
309.009258
 20
313.713229
 42
0.307607
  0
VERTEX
  8
0
 10
309.394113
 20
313.156052
 42
0.044753
  0
VERTEX
  8
0
 10
310.789091
 20
312.754867
 42
0.030965
  0
VERTEX
  8
0
 10
312.992304
 20
312.469785
 42
0.010517
  0
VERTEX
  8
0
 10
316.219982
 20
312.322060
 42
-0.012082
  0
VERTEX
  8
0
 10
319.531738
 20
312.160095
 42
-0.030161
  0
VERTEX
  8
0
 10
321.931967
 20
311.838152
 42
-0.041039
  0
VERTEX
  8
0
 10
323.600388
 20
311.366200
 42
-0.146464
  0
VERTEX
  8
0
 10
324.475012
 20
310.703286
 42
0.138881
  0
VERTEX
  8
0
 10
326.078007
 20
309.450368
 42
0.041038
  0
VERTEX
  8
0
 10
329.078798
 20
308.504328
 42
0.037587
  0
VERTEX
  8
0
 10
332.793255
 20
307.949656
 42
0.032163
  0
VERTEX
  8
0
 10
336.750000
 20
307.914876
 42
-0.021064
  0
VERTEX
  8
0
 10
338.464674
 20
307.937844
 42
-0.041588
  0
VERTEX
  8
0
 10
339.817012
 20
307.785943
 42
-0.056586
  0
VERTEX
  8
0
 10
340.727418
 20
307.496285
 42
-0.295613
  0
VERTEX
  8
0
 10
341.000000
 20
307.075529
 42
0.286147
  0
VERTEX
  8
0
 10
341.258997
 20
306.660025
 42
0.048369
  0
VERTEX
  8
0
 10
342.175000
 20
306.315937
 42
0.040287
  0
VERTEX
  8
0
 10
343.467182
 20
306.077941
 42
0.025408
  0
VERTEX
  8
0
 10
345.000000
 20
306.000000
 42
-0.017644
  0
VERTEX
  8
0
 10
346.533217
 20
305.945879
 42
-0.028718
  0
VERTEX
  8
0
 10
347.824608
 20
305.779688
 42
-0.028401
  0
VERTEX
  8
0
 10
348.782795
 20
305.542973
 42
-0.329613
  0
VERTEX
  8
0
 10
348.998665
 20
305.250000
 42
0.385271
  0
VERTEX
  8
0
 10
349.260804
 20
304.959258
 42
0.008946
  0
VERTEX
  8
0
 10
351.258647
 20
304.791637
 42
0.015206
  0
VERTEX
  8
0
 10
353.743030
 20
304.703642
 42
0.009133
  0
VERTEX
  8
0
 10
356.694095
 20
304.742805
 42
-0.009924
  0
VERTEX
  8
0
 10
359.683651
 20
304.777749
 42
-0.014860
  0
VERTEX
  8
0
 10
362.292840
 20
304.678871
 42
-0.009722
  0
VERTEX
  8
0
 10
364.425985
 20
304.492732
 42
-0.218109
  0
VERTEX
  8
0
 10
364.945430
 20
304.184196
 42
0.242699
  0
VERTEX
  8
0
 10
365.506238
 20
303.885589
 42
0.004358
  0
VERTEX
  8
0
 10
369.008970
 20
303.870294
 42
0.009799
  0
VERTEX
  8
0
 10
373.168703
 20
303.969926
 42
0.006251
  0
VERTEX
  8
0
 10
378.000000
 20
304.240985
 42
-0.004293
  0
VERTEX
  8
0
 10
383.097287
 20
304.547003
 42
-0.004618
  0
VERTEX
  8
0
 10
388.076563
 20
304.756969
 42
-0.004375
  0
VERTEX
  8
0
 10
392.353177
 20
304.860303
 42
-0.021871
  0
VERTEX
  8
0
 10
394.750000
 20
304.792388
 42
0.018021
  0
VERTEX
  8
0
 10
396.671224
 20
304.723145
 42
0.055054
  0
VERTEX
  8
0
 10
397.965880
 20
304.866146
 42
0.101338
  0
VERTEX
  8
0
 10
398.725668
 20
305.207264
 42
0.241226
  0
VERTEX
  8
0
 10
399.000000
 20
305.742794
 42
-0.072723
  0
VERTEX
  8
0
 10
399.070245
 20
306.223205
 42
-0.087481
  0
VERTEX
  8
0
 10
399.274627
 20
306.630696
 42
-0.100500
  0
VERTEX
  8
0
 10
399.578381
 20
306.903108
 42
-0.133466
  0
VERTEX
  8
0
 10
399.934900
 20
307.000000
 42
0.057857
  0
VERTEX
  8
0
 10
400.457869
 20
307.060718
 42
0.011000
  0
VERTEX
  8
0
 10
401.387440
 20
307.301219
 42
0.011606
  0
VERTEX
  8
0
 10
402.465741
 20
307.632866
 42
0.010432
  0
VERTEX
  8
0
 10
403.566877
 20
308.025427
 42
0.016013
  0
VERTEX
  8
0
 10
405.162484
 20
308.691298
 42
0.194179
  0
VERTEX
  8
0
 10
405.610752
 20
309.163083
 42
0.255611
  0
VERTEX
  8
0
 10
405.538988
 20
309.737704
 42
0.027710
  0
VERTEX
  8
0
 10
404.668512
 20
310.813797
 42
0.111295
  0
VERTEX
  8
0
 10
403.391094
 20
311.713385
 42
0.055945
  0
VERTEX
  8
0
 10
401.485515
 20
312.261559
 42
0.031153
  0
VERTEX
  8
0
 10
398.504508
 20
312.578874
 42
0.006934
  0
VERTEX
  8
0
 10
393.380325
 20
312.732105
 42
-0.008639
  0
VERTEX
  8
0
 10
389.622878
 20
312.857292
 42
-0.013067
  0
VERTEX
  8
0
 10
386.360399
 20
313.108064
 42
-0.007766
  0
VERTEX
  8
0
 10
383.675080
 20
313.427443
 42
-0.217560
  0
VERTEX
  8
0
 10
383.093791
 20
313.793791
 42
0.116102
  0
VERTEX
  8
0
 10
382.104165
 20
314.733685
 42
0.103895
  0
VERTEX
  8
0
 10
380.758284
 20
315.181809
 42
0.104962
  0
VERTEX
  8
0
 10
379.357364
 20
315.048613
 42
0.120946
  0
VERTEX
  8
0
 10
378.211726
 20
314.354584
 42
-0.190516
  0
VERTEX
  8
0
 10
375.279075
 20
313.083870
 42
-0.010025
  0
VERTEX
  8
0
 10
364.860481
 20
312.955614
 42
-0.007772
  0
VERTEX
  8
0
 10
354.296735
 20
313.201623
 42
-0.402886
  0
VERTEX
  8
0
 10
353.000000
 20
314.549711
 42
0.269909
  0
VERTEX
  8
0
 10
352.583493
 20
315.265072
 42
0.084438
  0
VERTEX
  8
0
 10
351.370964
 20
315.704678
 42
0.037621
  0
VERTEX
  8
0
 10
349.114628
 20
315.940488
 42
0.007231
  0
VERTEX
  8
0
 10
345.000000
 20
316.000000
 42
-0.007726
  0
VERTEX
  8
0
 10
341.038332
 20
316.061219
 42
-0.034324
  0
VERTEX
  8
0
 10
338.722773
 20
316.292437
 42
-0.067773
  0
VERTEX
  8
0
 10
337.417216
 20
316.701282
 42
-0.290798
  0
VERTEX
  8
0
 10
337.000000
 20
317.357983
 42
0.291213
  0
VERTEX
  8
0
 10
336.558747
 20
318.051345
 42
0.039346
  0
VERTEX
  8
0
 10
334.866709
 20
318.685608
 42
0.027567
  0
VERTEX
  8
0
 10
332.152302
 20
319.306495
 42
0.008484
  0
VERTEX
  8
0
 10
328.000000
 20
319.945874
 42
-0.009326
  0
VERTEX
  8
0
 10
324.549693
 20
320.483111
 42
-0.015135
  0
VERTEX
  8
0
 10
321.643750
 20
321.082428
 42
-0.008875
  0
VERTEX
  8
0
 10
319.309028
 20
321.682076
 42
-0.337405
  0
VERTEX
  8
0
 10
319.000000
 20
322.087891
 42
0.330243
  0
VERTEX
  8
0
 10
318.735766
 20
322.444320
 42
0.027883
  0
VERTEX
  8
0
 10
317.555729
 20
322.732068
 42
0.028411
  0
VERTEX
  8
0
 10
315.968038
 20
322.934184
 42
0.017455
  0
VERTEX
  8
0
 10
314.083333
 20
323.000000
 42
-0.020037
  0
VERTEX
  8
0
 10
312.024217
 20
323.082549
 42
-0.036638
  0
VERTEX
  8
0
 10
310.364005
 20
323.339206
 42
-0.045015
  0
VERTEX
  8
0
 10
309.170107
 20
323.730340
 42
-0.197694
  0
VERTEX
  8
0
 10
308.662281
 20
324.250000
 42
0.009423
  0
VERTEX
  8
0
 10
308.383872
 20
324.904168
 42
0.299981
  0
VERTEX
  8
0
 10
308.243798
 20
324.993300
 42
0.378007
  0
VERTEX
  8
0
 10
308.135179
 20
324.894323
 42
0.011600
  0
SEQEND
  0
ENDSEC
  0
EOF
